<?xml version="1.0" standalone="no"?>
<!DOCTYPE svg PUBLIC "-//W3C//DTD SVG 20010904//EN"
 "http://www.w3.org/TR/2001/REC-SVG-20010904/DTD/svg10.dtd">
<svg version="1.0" xmlns="http://www.w3.org/2000/svg"
 width="512.000000pt" height="512.000000pt" viewBox="0 0 512.000000 512.000000"
 preserveAspectRatio="xMidYMid meet">
<metadata>
Created by potrace 1.14, written by Peter Selinger 2001-2017
</metadata>
<g transform="translate(0.000000,512.000000) scale(0.100000,-0.100000)"
fill="#000000" stroke="none">
<path d="M2988 4955 c-2 -1 -32 -5 -68 -9 -404 -38 -787 -213 -1073 -490 -106
-103 -235 -286 -291 -413 -16 -37 -24 -43 -50 -44 -60 -3 -75 -6 -118 -28 -86
-45 -118 -102 -142 -251 -12 -74 -16 -86 -41 -107 -14 -12 -41 -25 -61 -29
-32 -6 -44 -1 -120 51 -47 32 -104 64 -127 72 -53 19 -151 12 -178 -13 -10 -9
-19 -13 -19 -9 0 4 -47 -39 -105 -96 -131 -129 -156 -173 -151 -271 4 -67 6
-73 70 -166 36 -54 66 -106 66 -117 -1 -34 -34 -89 -60 -102 -14 -6 -65 -19
-114 -28 -103 -18 -127 -30 -178 -80 -58 -58 -68 -103 -65 -284 2 -150 3 -158
30 -203 42 -72 99 -110 184 -123 21 -3 50 -8 63 -11 14 -3 32 -7 40 -8 56 -9
84 -37 95 -97 6 -30 0 -43 -39 -99 -81 -114 -90 -137 -90 -215 -1 -94 16 -123
132 -239 117 -115 126 -122 177 -138 86 -26 143 -11 260 67 53 36 102 65 108
65 29 -1 98 -41 106 -62 4 -13 16 -66 25 -118 21 -119 57 -175 138 -213 49
-24 64 -26 200 -27 174 -1 212 8 273 65 50 46 65 38 40 -21 -8 -19 -14 -36
-15 -39 -1 -6 11 30 -125 -380 -64 -192 -118 -357 -122 -365 -3 -8 -7 -19 -9
-25 -1 -5 -9 -32 -19 -58 -19 -55 -8 -109 25 -127 12 -6 358 -10 963 -10 915
0 946 1 968 19 l24 19 3 421 3 421 533 0 c511 0 535 1 557 19 l24 19 5 480 5
481 108 71 c59 40 112 81 118 92 18 33 3 75 -53 153 -29 40 -60 82 -68 95 -8
12 -40 55 -70 95 -30 41 -88 121 -128 178 l-72 105 0 598 c0 330 -2 625 -5
657 -10 109 -79 273 -152 362 -46 55 -120 130 -153 155 -18 14 -38 30 -45 37
-23 22 -121 81 -210 126 -148 74 -360 141 -525 166 -36 5 -83 13 -105 16 -38
7 -371 15 -377 10z m367 -169 c17 -2 50 -8 75 -11 25 -3 61 -10 80 -15 19 -5
50 -12 68 -15 68 -11 230 -69 330 -116 204 -97 356 -231 428 -377 64 -129 63
-121 64 -825 0 -567 2 -643 16 -673 9 -19 20 -34 25 -34 5 0 9 -5 9 -11 0 -7
24 -44 54 -83 50 -67 194 -268 226 -316 8 -12 21 -29 28 -36 11 -11 -3 -24
-80 -74 -51 -33 -98 -71 -105 -83 -9 -16 -12 -134 -13 -469 l0 -448 -522 -1
c-288 -1 -528 -1 -534 0 -7 1 -24 -13 -38 -30 l-26 -31 0 -409 0 -409 -824 0
-825 0 145 431 c79 238 144 438 144 446 0 8 -18 80 -40 160 -22 80 -37 149
-35 153 9 15 72 31 91 23 11 -5 58 -34 104 -65 113 -76 190 -89 275 -48 48 23
236 204 260 250 43 83 32 185 -29 270 -20 27 -36 55 -36 60 0 6 -4 10 -9 10
-5 0 -16 16 -26 36 -16 34 -16 39 0 80 19 51 46 68 120 78 126 16 176 36 224
91 55 63 62 94 61 271 -1 149 -4 168 -38 224 -46 75 -113 108 -259 126 -61 8
-83 22 -104 69 -25 56 -21 71 42 156 27 37 56 84 65 105 26 63 17 163 -20 216
-35 49 -203 211 -239 230 -50 25 -121 33 -174 19 -22 -6 -70 -32 -105 -56
-104 -74 -121 -81 -168 -65 -62 21 -71 35 -85 135 -16 107 -41 165 -93 212
-35 32 -95 59 -120 55 -25 -5 -24 29 2 68 14 22 26 44 26 50 0 5 5 10 10 10 6
0 10 6 10 13 0 18 111 152 184 222 95 90 154 136 251 195 66 41 247 131 270
134 5 1 15 5 21 8 18 11 226 68 269 74 22 3 47 7 55 10 8 3 46 8 85 11 38 3
71 6 73 8 5 5 326 -3 357 -9z m-1609 -1686 c170 -55 296 -162 360 -306 27 -60
29 -69 44 -139 13 -62 6 -194 -15 -260 -20 -66 -75 -163 -121 -214 -34 -39
-133 -110 -185 -134 -97 -45 -260 -58 -367 -30 -155 40 -293 154 -361 296 -48
101 -59 153 -56 265 7 255 182 467 435 526 65 16 212 13 266 -4z"/>
<path d="M3385 4621 c-232 -56 -352 -205 -341 -422 7 -137 45 -217 161 -339
52 -55 74 -85 79 -112 12 -63 30 -68 238 -68 207 0 222 4 234 67 5 28 28 59
88 123 122 129 162 228 153 385 -6 114 -45 196 -123 259 -53 44 -145 94 -188
102 -11 2 -34 7 -51 10 -63 14 -181 11 -250 -5z"/>
<path d="M3280 3520 l0 -80 240 0 240 0 0 80 0 80 -240 0 -240 0 0 -80z"/>
<path d="M3280 3280 l0 -80 240 0 240 0 0 80 0 80 -240 0 -240 0 0 -80z"/>
<path d="M3440 2840 l0 -200 -120 0 -120 0 0 -80 0 -80 174 0 c170 0 174 0
200 25 l26 24 0 256 0 255 -80 0 -80 0 0 -200z"/>
</g>
</svg>
